<svg id="eLPVEI94n6a1" fill="#d9dadb" xmlns="http://www.w3.org/2000/svg" xmlns:xlink="http://www.w3.org/1999/xlink" viewBox="0 0 512 512" shape-rendering="geometricPrecision" text-rendering="geometricPrecision"><path d="M255.988,32C160.473,32,78.934,91.804,46.727,176h34.639c9.396-20.484,22.457-39.35,38.868-55.762C156.497,83.973,204.709,64,255.988,64c51.286,0,99.504,19.973,135.771,56.239C428.027,156.505,448,204.719,448,256c0,51.285-19.973,99.501-56.239,135.765C355.494,428.029,307.275,448,255.988,448c-51.281,0-99.493-19.971-135.755-56.234C103.821,375.354,90.76,356.486,81.362,336h-34.637c32.206,84.201,113.746,144,209.264,144C379.703,480,480,379.715,480,256C480,132.298,379.703,32,255.988,32Z" transform="matrix(1.150555 0 0 1.142857-39.331465-36.571392)"/><path d="M206.863,323.883L229.49,346.51L320,256l-90.51-90.51-22.628,22.628L258.745,240L32,240v32h226.745l-51.882,51.883Z" transform="translate(-17.571783 0)"/></svg>
