<svg id="eDC0Nhe769B1" xmlns="http://www.w3.org/2000/svg" xmlns:xlink="http://www.w3.org/1999/xlink" viewBox="0 0 29 29" shape-rendering="geometricPrecision" text-rendering="geometricPrecision"><g fill="#d9dadb" transform="matrix(1.159972 0 0 1.16-2.319249-2.32)"><path d="M14.5,2C7.599639,2.007715,2.007715,7.599639,2,14.5C2.011561,21.398765,7.601235,26.988439,14.5,27C21.403559,27,27,21.403559,27,14.5s-5.596441-12.5-12.5-12.5Zm7.603,19.713c-1.432027-2.888424-4.378058-4.714987-7.601983-4.71329s-6.168032,1.83136-7.597017,4.72129C5.034915,19.782504,3.993441,17.192806,4,14.5C4,8.70101,8.70101,4,14.5,4s10.5,4.70101,10.5,10.5c.006256,2.689041-1.032489,5.275326-2.897,7.213ZM14.5,7C12.014719,7,10,9.014719,10,11.5s2.014719,4.5,4.5,4.5s4.5-2.014719,4.5-4.5-2.014719-4.5-4.5-4.5Z"/></g></svg>
